<svg width="196" height="36" viewBox="0 0 196 36" fill="none" xmlns="http://www.w3.org/2000/svg">
<g clip-path="url(#clip0_905_103)">
<path d="M0.422539 17.9426C0.288962 18.2776 -0.108887 28.1541 -0.108887 28.1541C6.41044 26.1252 8.97339 29.2164 12.0582 35.8678L21.7161 34.4897C25.2044 24.9002 28.2316 24.6992 31.1049 27.7713L32.9404 27.6278C34.4876 22.9 37.5243 16.7367 41.0992 10.0375L44.2896 8.46799L42.9539 5.60647L38.6871 0.27676L35.5927 2.81959C30.1151 0.16383 27.5589 1.89127 25.2525 3.99865C21.447 1.3917 18.3238 1.36395 15.7099 3.27131C14.7201 -0.75492 5.15732 -1.27267 4.95263 3.86467C2.67413 5.0801 3.20363 7.44397 2.75773 9.41545C4.00798 12.5449 2.98837 14.9949 0.422539 17.9426Z" fill="url(#paint0_linear_905_103)"/>
</g>
<path d="M191.332 24.2967H187.771V11.8865H191.148V15.9185H191.436C192.222 12.4625 193.269 11.7556 194.892 11.7556H195.259V15.84H194.526C192.039 15.84 191.332 16.5731 191.332 18.7724V24.2967Z" fill="#1E1E1E"/>
<path d="M180.08 14.2167C178.456 14.2167 177.54 15.0545 177.357 17.0967H182.541C182.488 15.1593 181.677 14.2167 180.08 14.2167ZM180.132 24.6371C176.388 24.6371 173.822 22.5687 173.822 18.3535C173.822 14.0596 176.152 11.5462 180.184 11.5462C184.007 11.5462 185.814 13.7978 185.814 17.2276C185.814 17.7513 185.787 18.2487 185.735 18.9033H177.331C177.54 20.8931 178.456 21.7833 180.158 21.7833C181.834 21.7833 182.358 20.9978 182.672 20.0553L185.656 20.8669C185.107 23.0138 183.667 24.6371 180.132 24.6371Z" fill="#1E1E1E"/>
<path d="M168.806 24.2967H165.245V11.8865H168.623V15.9185H168.911C169.696 12.4625 170.744 11.7556 172.367 11.7556H172.733V15.84H172C169.513 15.84 168.806 16.5731 168.806 18.7724V24.2967Z" fill="#1E1E1E"/>
<path d="M156.97 24.6633C152.938 24.6633 150.555 22.176 150.555 18.0916C150.555 13.9549 153.016 11.5462 156.97 11.5462C160.845 11.5462 163.332 13.9549 163.332 18.0916C163.332 22.176 160.923 24.6633 156.97 24.6633ZM156.944 14.5309C154.98 14.5309 154.116 15.8138 154.116 18.0654C154.116 20.3171 154.928 21.6262 156.944 21.6262C158.933 21.6262 159.771 20.3171 159.771 18.0654C159.771 15.8138 158.907 14.5309 156.944 14.5309Z" fill="#1E1E1E"/>
<path d="M148.583 7.488V24.2967H145.022V7.488H148.583Z" fill="#1E1E1E"/>
<path d="M137.058 21.5215C138.786 21.5215 139.545 20.3956 139.545 18.1178C139.545 15.84 138.786 14.7665 137.084 14.7665C135.513 14.7665 134.545 15.8924 134.545 17.6727V18.6414C134.545 20.3694 135.54 21.5215 137.058 21.5215ZM143.054 18.1178C143.054 22.3855 141.457 24.6633 138.786 24.6633C136.718 24.6633 135.382 23.2233 134.754 21.0502H134.545V28.2764H130.984V11.8865H134.545V15.0284H134.78C135.435 12.8553 136.796 11.5462 138.786 11.5462C141.509 11.5462 143.054 13.8502 143.054 18.1178Z" fill="#1E1E1E"/>
<path d="M125.356 24.2967L123.157 19.4007H122.712L120.774 24.2967H116.795V24.0087L120.355 17.8036L116.847 12.1745V11.8865H120.931L123.078 16.6778H123.55L125.513 11.8865H129.283V12.1745L125.906 18.3273L129.44 24.0087V24.2967H125.356Z" fill="#1E1E1E"/>
<path d="M103.628 24.2967V8.58763H115.514V11.8604H107.424V14.8974H114.86V17.8298H107.424V21.024H115.488V24.2967H103.628Z" fill="#1E1E1E"/>
<path d="M94.8849 21.8356C96.5082 21.8356 97.5293 20.8669 97.5293 19.5316V19.0342H94.9635C93.8115 19.0342 93.0784 19.5578 93.0784 20.4218C93.0784 21.2073 93.5235 21.8356 94.8849 21.8356ZM97.7126 24.2967V21.3382H97.3984C96.77 23.3018 95.4609 24.5585 93.3402 24.5585C91.2457 24.5585 89.7009 23.4851 89.7009 21.0502C89.7009 18.8247 91.01 17.28 94.2827 17.28H97.5293V16.416C97.5293 15.1331 96.9795 14.4 95.618 14.4C94.4398 14.4 93.7591 14.976 93.5235 16.1804L90.1722 15.4211C90.5911 13.1694 92.3191 11.5724 95.7489 11.5724C99.5191 11.5724 101.064 13.3004 101.064 16.416V24.2967H97.7126Z" fill="#00851C"/>
<path d="M87.7629 23.5898C87.7629 26.6007 86.5585 28.512 83.2858 28.512C82.8931 28.512 82.5003 28.4596 82.1338 28.4073L82.2909 25.344C82.5789 25.3964 82.8407 25.4225 83.1287 25.4225C83.9403 25.4225 84.2022 24.8727 84.2022 24.0611V11.9127H87.7629V23.5898ZM87.8414 10.1324H84.1236V7.56654H87.8414V10.1324Z" fill="#00851C"/>
<path d="M81.316 10.1324H77.5981V7.56654H81.316V10.1324ZM81.2374 24.2967H77.6767V11.8865H81.2374V24.2967Z" fill="#00851C"/>
<path d="M68.9076 21.8356C70.5309 21.8356 71.552 20.8669 71.552 19.5316V19.0342H68.9862C67.8342 19.0342 67.1011 19.5578 67.1011 20.4218C67.1011 21.2073 67.5462 21.8356 68.9076 21.8356ZM71.7353 24.2967V21.3382H71.4211C70.7927 23.3018 69.4836 24.5585 67.3629 24.5585C65.2684 24.5585 63.7236 23.4851 63.7236 21.0502C63.7236 18.8247 65.0327 17.28 68.3055 17.28H71.552V16.416C71.552 15.1331 71.0022 14.4 69.6407 14.4C68.4625 14.4 67.7818 14.976 67.5462 16.1804L64.1949 15.4211C64.6138 13.1694 66.3418 11.5724 69.7716 11.5724C73.5418 11.5724 75.0865 13.3004 75.0865 16.416V24.2967H71.7353Z" fill="#00851C"/>
<path d="M56.8015 24.2967L53.6073 18.0916C52.8742 16.5731 51.8008 13.9549 51.0677 11.9389L50.6488 11.9913C50.8059 14.3215 50.963 17.6465 50.963 19.5578V24.2967H47.4546V8.58763H52.7957L55.5448 13.8502C56.5397 15.7876 57.587 18.4844 58.2153 20.3695L58.6342 20.3171C58.451 18.0393 58.32 15.2902 58.32 13.4313V8.58763H61.8022V24.2967H56.8015Z" fill="#00851C"/>
<defs>
<linearGradient id="paint0_linear_905_103" x1="-3.98858e-05" y1="27.25" x2="35.5596" y2="4.11616" gradientUnits="userSpaceOnUse">
<stop offset="0.147614" stop-color="#4EAB3B"/>
<stop offset="0.476362" stop-color="#FFFEFE"/>
<stop offset="0.890223" stop-color="#4EAB3B"/>
</linearGradient>
<clipPath id="clip0_905_103">
<rect width="44.1818" height="36" fill="white"/>
</clipPath>
</defs>
</svg>
